<?xml version="1.0" standalone="no"?>
<!DOCTYPE svg PUBLIC "-//W3C//DTD SVG 20010904//EN"
 "http://www.w3.org/TR/2001/REC-SVG-20010904/DTD/svg10.dtd">
<svg version="1.0" xmlns="http://www.w3.org/2000/svg"
 width="512.000000pt" height="512.000000pt" viewBox="0 0 512.000000 512.000000"
 preserveAspectRatio="xMidYMid meet">
<metadata>
Created by potrace 1.14, written by Peter Selinger 2001-2017
</metadata>
<g transform="translate(0.000000,512.000000) scale(0.100000,-0.100000)"
fill="#000000" stroke="none">
<path d="M482 5100 c-227 -60 -404 -238 -462 -466 -20 -76 -20 -119 -20 -2074
0 -1955 0 -1998 20 -2074 58 -230 236 -408 466 -466 76 -20 119 -20 2074 -20
1955 0 1998 0 2074 20 230 58 408 236 466 466 20 76 20 119 20 2074 0 1955 0
1998 -20 2074 -58 230 -236 408 -466 466 -76 20 -118 20 -2078 19 -1936 0
-2003 -1 -2074 -19z m3163 -2588 l511 -1547 -450 -3 c-247 -1 -451 0 -453 2
-2 2 -43 134 -91 292 l-88 289 -514 3 -515 2 -74 -247 c-41 -137 -81 -269 -89
-296 l-14 -47 -455 0 c-374 0 -454 2 -450 13 8 20 939 2843 982 2975 l36 112
577 0 577 0 510 -1548z"/>
<path d="M2547 3203 c-6 -10 -307 -1006 -307 -1016 0 -4 144 -7 320 -7 176 0
320 3 320 8 -2 29 -309 1017 -317 1019 -6 2 -13 0 -16 -4z"/>
</g>
</svg>
